<svg width="1024" height="1024" viewBox="0 0 1024 1024" fill="none" xmlns="http://www.w3.org/2000/svg">
  <defs>
    <linearGradient id="bgGrad1" x1="0%" y1="0%" x2="100%" y2="100%">
      <stop offset="0%" style="stop-color:#E6F4FE;stop-opacity:1" />
      <stop offset="100%" style="stop-color:#F0F9FF;stop-opacity:1" />
    </linearGradient>
    <linearGradient id="nurseGrad" x1="0%" y1="0%" x2="100%" y2="100%">
      <stop offset="0%" style="stop-color:#007AFF;stop-opacity:1" />
      <stop offset="100%" style="stop-color:#0051D5;stop-opacity:1" />
    </linearGradient>
  </defs>
  
  <!-- Background -->
  <rect width="1024" height="1024" fill="url(#bgGrad1)"/>
  
  <!-- Decorative circles -->
  <circle cx="150" cy="150" r="80" fill="#007AFF" fill-opacity="0.1"/>
  <circle cx="874" cy="874" r="100" fill="#34C759" fill-opacity="0.1"/>
  
  <!-- Modern Nurse Figure (simplified, friendly) -->
  <g transform="translate(200, 200)">
    <!-- Head -->
    <circle cx="312" cy="180" r="80" fill="#FFDBAC"/>
    
    <!-- Hair -->
    <path d="M232 180 Q232 120 280 100 Q328 100 344 120 Q360 100 408 100 Q456 120 456 180" 
          fill="#3A3A3C" fill-opacity="0.8"/>
    
    <!-- Body (Medical scrubs) -->
    <rect x="252" y="260" width="120" height="200" rx="20" fill="url(#nurseGrad)"/>
    
    <!-- Arms -->
    <rect x="200" y="280" width="40" height="140" rx="20" fill="url(#nurseGrad)"/>
    <rect x="384" y="280" width="40" height="140" rx="20" fill="url(#nurseGrad)"/>
    
    <!-- Medical badge -->
    <circle cx="312" cy="320" r="25" fill="#FFFFFF"/>
    <path d="M312 305 L312 335 M297 320 L327 320" stroke="#007AFF" stroke-width="4" stroke-linecap="round"/>
  </g>
  
  <!-- Patient File/Document (Modern, clean) -->
  <g transform="translate(500, 300)">
    <!-- File background -->
    <rect x="0" y="0" width="300" height="400" rx="24" fill="#FFFFFF" stroke="#E5E5EA" stroke-width="3"/>
    
    <!-- File tab -->
    <rect x="20" y="-20" width="80" height="40" rx="8" fill="#007AFF"/>
    
    <!-- Document lines -->
    <rect x="40" y="60" width="220" height="16" rx="8" fill="#E5E5EA"/>
    <rect x="40" y="100" width="180" height="16" rx="8" fill="#E5E5EA"/>
    <rect x="40" y="140" width="200" height="16" rx="8" fill="#E5E5EA"/>
    <rect x="40" y="180" width="160" height="16" rx="8" fill="#E5E5EA"/>
    
    <!-- Medical icon -->
    <circle cx="150" cy="260" r="50" fill="#34C759" fill-opacity="0.1"/>
    <path d="M150 230 L150 290 M120 260 L180 260" stroke="#34C759" stroke-width="8" stroke-linecap="round"/>
    
    <!-- Time saved indicator -->
    <rect x="40" y="340" width="220" height="40" rx="12" fill="#FF9500" fill-opacity="0.1"/>
    <text x="150" y="365" font-family="Arial, sans-serif" font-size="24" font-weight="600" fill="#FF9500" text-anchor="middle">-50% temps</text>
  </g>
  
  <!-- Floating elements -->
  <circle cx="800" cy="200" r="40" fill="#007AFF" fill-opacity="0.2"/>
  <circle cx="150" cy="800" r="50" fill="#34C759" fill-opacity="0.15"/>
</svg>
