<svg width="1024" height="1024" viewBox="0 0 1024 1024" fill="none" xmlns="http://www.w3.org/2000/svg">
  <defs>
    <linearGradient id="bgGrad2" x1="0%" y1="0%" x2="100%" y2="100%">
      <stop offset="0%" style="stop-color:#F0F9FF;stop-opacity:1" />
      <stop offset="100%" style="stop-color:#E6F4FE;stop-opacity:1" />
    </linearGradient>
    <radialGradient id="waveGrad" cx="50%" cy="50%">
      <stop offset="0%" style="stop-color:#007AFF;stop-opacity:0.8" />
      <stop offset="100%" style="stop-color:#5AC8FA;stop-opacity:0.3" />
    </radialGradient>
  </defs>
  
  <!-- Background -->
  <rect width="1024" height="1024" fill="url(#bgGrad2)"/>
  
  <!-- Sound waves (modern, abstract) -->
  <g transform="translate(512, 400)">
    <!-- Wave 1 -->
    <path d="M-200 0 Q-150 -80 -100 0 T0 0" 
          stroke="#007AFF" stroke-width="12" fill="none" stroke-linecap="round" opacity="0.4"/>
    <path d="M-200 0 Q-150 80 -100 0 T0 0" 
          stroke="#007AFF" stroke-width="12" fill="none" stroke-linecap="round" opacity="0.4"/>
    
    <!-- Wave 2 (larger) -->
    <path d="M-300 0 Q-200 -120 -100 0 T100 0" 
          stroke="#007AFF" stroke-width="16" fill="none" stroke-linecap="round" opacity="0.6"/>
    <path d="M-300 0 Q-200 120 -100 0 T100 0" 
          stroke="#007AFF" stroke-width="16" fill="none" stroke-linecap="round" opacity="0.6"/>
    
    <!-- Wave 3 (largest) -->
    <path d="M-400 0 Q-250 -160 -100 0 T200 0" 
          stroke="#007AFF" stroke-width="20" fill="none" stroke-linecap="round" opacity="0.8"/>
    <path d="M-400 0 Q-250 160 -100 0 T200 0" 
          stroke="#007AFF" stroke-width="20" fill="none" stroke-linecap="round" opacity="0.8"/>
  </g>
  
  <!-- Modern Microphone -->
  <g transform="translate(412, 500)">
    <!-- Microphone body -->
    <rect x="0" y="0" width="200" height="280" rx="100" fill="#3A3A3C"/>
    
    <!-- Microphone grille -->
    <circle cx="100" cy="80" r="50" fill="#1C1C1E" fill-opacity="0.6"/>
    <circle cx="100" cy="80" r="35" fill="#3A3A3C"/>
    
    <!-- Stand -->
    <rect x="90" y="280" width="20" height="80" fill="#8E8E93"/>
    <rect x="70" y="360" width="60" height="20" rx="10" fill="#8E8E93"/>
    
    <!-- Recording indicator -->
    <circle cx="100" cy="80" r="25" fill="#FF3B30" opacity="0.8">
      <animate attributeName="opacity" values="0.8;0.4;0.8" dur="1.5s" repeatCount="indefinite"/>
    </circle>
  </g>
  
  <!-- SOAPIE Icons (floating, modern) -->
  <g>
    <!-- S - Subjective -->
    <g transform="translate(150, 150)">
      <circle cx="0" cy="0" r="60" fill="#007AFF" fill-opacity="0.15"/>
      <circle cx="0" cy="0" r="50" fill="#007AFF"/>
      <text x="0" y="8" font-family="Arial, sans-serif" font-size="36" font-weight="700" fill="#FFFFFF" text-anchor="middle">S</text>
    </g>
    
    <!-- O - Objective -->
    <g transform="translate(874, 150)">
      <circle cx="0" cy="0" r="60" fill="#34C759" fill-opacity="0.15"/>
      <circle cx="0" cy="0" r="50" fill="#34C759"/>
      <text x="0" y="8" font-family="Arial, sans-serif" font-size="36" font-weight="700" fill="#FFFFFF" text-anchor="middle">O</text>
    </g>
    
    <!-- A - Assessment -->
    <g transform="translate(150, 874)">
      <circle cx="0" cy="0" r="60" fill="#FF9500" fill-opacity="0.15"/>
      <circle cx="0" cy="0" r="50" fill="#FF9500"/>
      <text x="0" y="8" font-family="Arial, sans-serif" font-size="36" font-weight="700" fill="#FFFFFF" text-anchor="middle">A</text>
    </g>
    
    <!-- P - Plan -->
    <g transform="translate(874, 874)">
      <circle cx="0" cy="0" r="60" fill="#FF3B30" fill-opacity="0.15"/>
      <circle cx="0" cy="0" r="50" fill="#FF3B30"/>
      <text x="0" y="8" font-family="Arial, sans-serif" font-size="36" font-weight="700" fill="#FFFFFF" text-anchor="middle">P</text>
    </g>
    
    <!-- I - Interventions -->
    <g transform="translate(512, 150)">
      <circle cx="0" cy="0" r="60" fill="#AF52DE" fill-opacity="0.15"/>
      <circle cx="0" cy="0" r="50" fill="#AF52DE"/>
      <text x="0" y="8" font-family="Arial, sans-serif" font-size="36" font-weight="700" fill="#FFFFFF" text-anchor="middle">I</text>
    </g>
    
    <!-- E - Evaluation -->
    <g transform="translate(512, 874)">
      <circle cx="0" cy="0" r="60" fill="#5AC8FA" fill-opacity="0.15"/>
      <circle cx="0" cy="0" r="50" fill="#5AC8FA"/>
      <text x="0" y="8" font-family="Arial, sans-serif" font-size="36" font-weight="700" fill="#FFFFFF" text-anchor="middle">E</text>
    </g>
  </g>
  
  <!-- Connecting lines (subtle) -->
  <path d="M150 150 Q512 300 874 150" stroke="#E5E5EA" stroke-width="2" fill="none" opacity="0.5"/>
  <path d="M150 874 Q512 724 874 874" stroke="#E5E5EA" stroke-width="2" fill="none" opacity="0.5"/>
</svg>
